<svg xmlns="http://www.w3.org/2000/svg" xmlns:xlink="http://www.w3.org/1999/xlink" viewBox="401.9600076923077 439.6686988 932.5472178461538 1029.4681728" id="svg1" version="1.1" style="max-height: 500px" width="932.5472178461538" height="1029.4681728">
  <defs id="defs1">
    
    <clipPath id="clipPath3" clipPathUnits="userSpaceOnUse">
      <path id="path3" transform="translate(-443.99241,-666.98159)" d="M 0,2010.676 H 1306.375 V 0 H 0 Z"/>
    </clipPath>
    <clipPath id="clipPath5" clipPathUnits="userSpaceOnUse">
      <path id="path5" transform="translate(-518.47781,-619.88789)" d="M 0,2010.676 H 1306.375 V 0 H 0 Z"/>
    </clipPath>
    <clipPath id="clipPath7" clipPathUnits="userSpaceOnUse">
      <path id="path7" transform="translate(-597.03592,-641.17109)" d="M 0,2010.676 H 1306.375 V 0 H 0 Z"/>
    </clipPath>
    <clipPath id="clipPath9" clipPathUnits="userSpaceOnUse">
      <path id="path9" transform="translate(-721.33132,-690.52754)" d="M 0,2010.676 H 1306.375 V 0 H 0 Z"/>
    </clipPath>
    <clipPath id="clipPath11" clipPathUnits="userSpaceOnUse">
      <path id="path11" transform="translate(-854.90845,-666.98159)" d="M 0,2010.676 H 1306.375 V 0 H 0 Z"/>
    </clipPath>
    <clipPath id="clipPath13" clipPathUnits="userSpaceOnUse">
      <path id="path13" transform="translate(-901.32152,-666.98159)" d="M 0,2010.676 H 1306.375 V 0 H 0 Z"/>
    </clipPath>
    <clipPath id="clipPath15" clipPathUnits="userSpaceOnUse">
      <path id="path15" transform="translate(-1012.9359,-784.71412)" d="M 0,2010.676 H 1306.375 V 0 H 0 Z"/>
    </clipPath>
    <clipPath id="clipPath17" clipPathUnits="userSpaceOnUse">
      <path id="path17" transform="translate(-318.56911,-464.07441)" d="M 0,2010.676 H 1306.375 V 0 H 0 Z"/>
    </clipPath>
    <clipPath id="clipPath19" clipPathUnits="userSpaceOnUse">
      <path id="path19" transform="translate(-458.70871,-416.98161)" d="M 0,2010.676 H 1306.375 V 0 H 0 Z"/>
    </clipPath>
    <clipPath id="clipPath21" clipPathUnits="userSpaceOnUse">
      <path id="path21" transform="translate(-583.45582,-416.98161)" d="M 0,2010.676 H 1306.375 V 0 H 0 Z"/>
    </clipPath>
    <clipPath id="clipPath23" clipPathUnits="userSpaceOnUse">
      <path id="path23" transform="translate(-702.54612,-416.98161)" d="M 0,2010.676 H 1306.375 V 0 H 0 Z"/>
    </clipPath>
    <clipPath id="clipPath25" clipPathUnits="userSpaceOnUse">
      <path id="path25" transform="translate(-760.72884,-440.52749)" d="M 0,2010.676 H 1306.375 V 0 H 0 Z"/>
    </clipPath>
    <clipPath id="clipPath27" clipPathUnits="userSpaceOnUse">
      <path id="path27" transform="translate(0,2.5000001e-5)" d="M 0,2010.676 H 1306.375 V 0 H 0 Z"/>
    </clipPath>
    <clipPath id="clipPath29" clipPathUnits="userSpaceOnUse">
      <path id="path29" transform="translate(-876.19075,-416.98161)" d="M 0,2010.676 H 1306.375 V 0 H 0 Z"/>
    </clipPath>
    <clipPath id="clipPath31" clipPathUnits="userSpaceOnUse">
      <path id="path31" transform="translate(-985.08812,-391.17111)" d="M 0,2010.676 H 1306.375 V 0 H 0 Z"/>
    </clipPath>
    <clipPath id="clipPath33" clipPathUnits="userSpaceOnUse">
      <path id="path33" transform="translate(-361.16551,-1125.2448)" d="M 0,2010.676 H 1306.375 V 0 H 0 Z"/>
    </clipPath>
    <clipPath id="clipPath35" clipPathUnits="userSpaceOnUse">
      <path id="path35" transform="translate(-849.21925,-1407.0226)" d="M 0,2010.676 H 1306.375 V 0 H 0 Z"/>
    </clipPath>
    <clipPath id="clipPath37" clipPathUnits="userSpaceOnUse">
      <path id="path37" transform="translate(-463.65521,-1184.4176)" d="M 0,2010.676 H 1306.375 V 0 H 0 Z"/>
    </clipPath>
    <clipPath id="clipPath39" clipPathUnits="userSpaceOnUse">
      <path id="path39" transform="translate(-349.54051,-1114.7804)" d="M 0,2010.676 H 1306.375 V 0 H 0 Z"/>
    </clipPath>
    <clipPath id="clipPath41" clipPathUnits="userSpaceOnUse">
      <path id="path41" transform="translate(-956.8345,-1114.7804)" d="M 0,2010.676 H 1306.375 V 0 H 0 Z"/>
    </clipPath>
    <clipPath id="clipPath43" clipPathUnits="userSpaceOnUse">
      <path id="path43" transform="translate(0,2.5000001e-5)" d="M 0,2010.676 H 1306.375 V 0 H 0 Z"/>
    </clipPath>
    <clipPath id="clipPath45" clipPathUnits="userSpaceOnUse">
      <path id="path45" transform="translate(-457.15551,-1407.0226)" d="M 0,2010.676 H 1306.375 V 0 H 0 Z"/>
    </clipPath>
    <clipPath id="clipPath47" clipPathUnits="userSpaceOnUse">
      <path id="path47" transform="translate(-470.18011,-1407.0084)" d="M 0,2010.676 H 1306.375 V 0 H 0 Z"/>
    </clipPath>
    <clipPath id="clipPath49" clipPathUnits="userSpaceOnUse">
      <path id="path49" transform="translate(-849.36842,-1407.0225)" d="M 0,2010.676 H 1306.375 V 0 H 0 Z"/>
    </clipPath>
    <clipPath id="clipPath51" clipPathUnits="userSpaceOnUse">
      <path id="path51" transform="translate(-659.33642,-1290.3795)" d="M 0,2010.676 H 1306.375 V 0 H 0 Z"/>
    </clipPath>
    <clipPath id="clipPath53" clipPathUnits="userSpaceOnUse">
      <path id="path53" transform="translate(-646.56251,-1282.3688)" d="M 0,2010.676 H 1306.375 V 0 H 0 Z"/>
    </clipPath>
    <clipPath id="clipPath55" clipPathUnits="userSpaceOnUse">
      <path id="path55" transform="translate(-659.81302,-1282.3688)" d="M 0,2010.676 H 1306.375 V 0 H 0 Z"/>
    </clipPath>
    <clipPath id="clipPath57" clipPathUnits="userSpaceOnUse">
      <path id="path57" transform="translate(-666.18701,-941.3409)" d="M 0,2010.676 H 1306.375 V 0 H 0 Z"/>
    </clipPath>
    <clipPath id="clipPath59" clipPathUnits="userSpaceOnUse">
      <path id="path59" transform="translate(-458.97561,-1178.135)" d="M 0,2010.676 H 1306.375 V 0 H 0 Z"/>
    </clipPath>
    <clipPath id="clipPath61" clipPathUnits="userSpaceOnUse">
      <path id="path61" transform="translate(-847.39892,-1178.135)" d="M 0,2010.676 H 1306.375 V 0 H 0 Z"/>
    </clipPath>
    <clipPath id="clipPath63" clipPathUnits="userSpaceOnUse">
      <path id="path63" transform="translate(0,2.5000001e-5)" d="M 0,2010.676 H 1306.375 V 0 H 0 Z"/>
    </clipPath>
  </defs>
  
    
  
  <g id="layer-MC0">
    <path transform="matrix(1.3333333,0,0,-1.3333333,262.65067,1634.6212)" style="fill:#000000;fill-opacity:1;fill-rule:nonzero;stroke:none" d="m 0,0 h 26.716 v -70.64 h 91.017 V 0 h 26.716 v -164.826 h -26.716 v 70.639 H 26.716 v -70.639 H 0 Z" id="path1"/>
    <path clip-path="url(#clipPath3)" transform="matrix(1.3333333,0,0,-1.3333333,591.98987,1791.5979)" style="fill:#000000;fill-opacity:1;fill-rule:nonzero;stroke:none" d="m 0,0 c 0,14.942 -10.415,25.811 -25.358,25.811 -14.49,0 -25.358,-10.869 -25.358,-25.811 0,-14.49 10.868,-25.811 25.358,-25.811 C -10.415,-25.811 0,-14.49 0,0 m -76.074,0 c 0,27.169 23.547,49.357 50.716,49.357 C 4.076,49.357 25.358,29.433 25.358,0 V -47.094 H 0.453 v 8.151 c -5.887,-6.339 -16.302,-10.414 -28.075,-10.414 -28.527,0 -48.452,19.923 -48.452,49.357" id="path2"/>
    <path clip-path="url(#clipPath5)" transform="matrix(1.3333333,0,0,-1.3333333,691.30373,1854.3895)" style="fill:#000000;fill-opacity:1;fill-rule:nonzero;stroke:none" d="m 0,0 -38.49,94.187 h 25.359 l 25.81,-65.66 24.905,65.66 H 62.942 L 4.981,-47.094 h -24.452 z" id="path4"/>
    <path clip-path="url(#clipPath7)" transform="matrix(1.3333333,0,0,-1.3333333,796.04787,1826.0119)" style="fill:#000000;fill-opacity:1;fill-rule:nonzero;stroke:none" d="m 0,0 h 62.942 c 4.528,0 7.698,3.169 7.698,7.697 0,4.075 -3.17,7.245 -7.698,7.245 H 26.264 c -15.849,0 -28.981,12.679 -28.981,28.981 0,15.395 13.132,28.98 28.981,28.98 h 56.15 V 51.621 H 28.528 c -4.075,0 -7.698,-3.17 -7.698,-7.246 0,-4.527 3.17,-7.697 7.698,-7.697 h 36.678 c 15.849,0 28.981,-12.227 28.981,-28.981 0,-14.943 -13.132,-28.98 -28.981,-28.98 l -65.206,0 z" id="path6"/>
    <path clip-path="url(#clipPath9)" transform="matrix(1.3333333,0,0,-1.3333333,961.77507,1760.2033)" style="fill:#000000;fill-opacity:1;fill-rule:nonzero;stroke:none" d="M 0,0 H -12.679 V 23.547 H 0 v 70.64 H 25.358 V 23.547 H 38.037 V 0 H 25.358 V -70.64 H 0 Z" id="path8"/>
    <path clip-path="url(#clipPath11)" transform="matrix(1.3333333,0,0,-1.3333333,1139.8779,1791.5979)" style="fill:#000000;fill-opacity:1;fill-rule:nonzero;stroke:none" d="m 0,0 c 0,14.942 -10.414,25.811 -25.357,25.811 -14.491,0 -25.359,-10.869 -25.359,-25.811 0,-14.49 10.868,-25.811 25.359,-25.811 C -10.414,-25.811 0,-14.49 0,0 m -76.073,0 c 0,27.169 23.547,49.357 50.716,49.357 C 4.076,49.357 25.358,29.433 25.358,0 V -47.094 H 0.453 v 8.151 c -5.887,-6.339 -16.302,-10.414 -28.075,-10.414 -28.527,0 -48.451,19.923 -48.451,49.357" id="path10"/>
    <path clip-path="url(#clipPath13)" transform="matrix(1.3333333,0,0,-1.3333333,1201.762,1791.5979)" style="fill:#000000;fill-opacity:1;fill-rule:nonzero;stroke:none" d="m 0,0 c 0,27.169 23.547,49.357 50.716,49.357 14.037,0 25.357,-4.076 35.32,-14.038 L 69.281,18.564 c -4.98,4.53 -11.32,7.247 -18.565,7.247 -14.49,0 -25.359,-10.869 -25.359,-25.811 0,-14.49 10.869,-25.811 25.359,-25.811 6.792,0 13.585,3.169 18.112,7.698 L 85.583,-34.415 C 76.526,-43.924 63.848,-49.357 50.716,-49.357 21.282,-49.357 0,-29.434 0,0" id="path12"/>
    <path clip-path="url(#clipPath15)" transform="matrix(1.3333333,0,0,-1.3333333,1350.5811,1634.6212)" style="fill:#000000;fill-opacity:1;fill-rule:nonzero;stroke:none" d="M 0,0 H 25.358 V -115.016 L 66.564,-70.64 H 96.451 L 71.998,-96.903 96.451,-164.826 H 71.093 l -17.66,47.999 -28.075,-30.339 v -17.66 H 0 Z" id="path14"/>
    <path clip-path="url(#clipPath17)" transform="matrix(1.3333333,0,0,-1.3333333,424.7588,2062.1408)" style="fill:#000000;fill-opacity:1;fill-rule:nonzero;stroke:none" d="M 0,0 C 14.037,0 23.546,9.509 23.546,23.547 23.546,37.584 14.037,47.093 0,47.093 H -67.47 V 0 Z M -94.187,70.64 H 2.717 c 28.528,0 47.546,-21.283 47.546,-47.093 0,-19.925 -11.773,-37.585 -30.339,-44.376 L 50.263,-94.187 H 22.641 l -29.433,70.64 H -67.47 v -70.64 h -26.717 z" id="path16"/>
    <path clip-path="url(#clipPath19)" transform="matrix(1.3333333,0,0,-1.3333333,611.6116,2124.9312)" style="fill:#000000;fill-opacity:1;fill-rule:nonzero;stroke:none" d="m 0,0 c 0,14.942 -10.415,25.811 -25.358,25.811 -14.49,0 -25.358,-10.869 -25.358,-25.811 0,-14.49 10.868,-25.811 25.358,-25.811 C -10.415,-25.811 0,-14.49 0,0 m -76.074,0 c 0,27.169 23.547,49.357 50.716,49.357 29.434,0 50.716,-19.924 50.716,-49.357 0,-27.17 -23.546,-49.357 -50.716,-49.357 -29.433,0 -50.716,19.923 -50.716,49.357" id="path18"/>
    <path clip-path="url(#clipPath21)" transform="matrix(1.3333333,0,0,-1.3333333,777.94107,2124.9312)" style="fill:#000000;fill-opacity:1;fill-rule:nonzero;stroke:none" d="m 0,0 c 0,14.942 -10.415,25.811 -25.358,25.811 -14.49,0 -25.358,-10.869 -25.358,-25.811 0,-14.49 10.868,-25.811 25.358,-25.811 C -10.415,-25.811 0,-14.49 0,0 m -76.074,0 v 117.732 h 25.358 V 38.941 c 5.434,6.34 15.849,10.416 27.622,10.416 28.528,0 48.452,-19.924 48.452,-49.357 0,-27.17 -23.546,-49.357 -50.716,-49.357 -29.433,0 -50.716,19.923 -50.716,49.357" id="path20"/>
    <path clip-path="url(#clipPath23)" transform="matrix(1.3333333,0,0,-1.3333333,936.72813,2124.9312)" style="fill:#000000;fill-opacity:1;fill-rule:nonzero;stroke:none" d="m 0,0 c 0,14.942 -10.415,25.811 -25.358,25.811 -14.491,0 -25.358,-10.869 -25.358,-25.811 0,-14.49 10.867,-25.811 25.358,-25.811 C -10.415,-25.811 0,-14.49 0,0 m -76.074,0 c 0,27.169 23.547,49.357 50.716,49.357 29.433,0 50.715,-19.924 50.715,-49.357 0,-27.17 -23.545,-49.357 -50.715,-49.357 -29.434,0 -50.716,19.923 -50.716,49.357" id="path22"/>
    <path clip-path="url(#clipPath25)" transform="matrix(1.3333333,0,0,-1.3333333,1014.3051,2093.5367)" style="fill:#000000;fill-opacity:1;fill-rule:nonzero;stroke:none" d="M 0,0 H -12.679 V 23.547 H 0 v 70.64 h 25.357 v -70.64 h 12.68 V 0 H 25.357 V -70.64 H 0 Z" id="path24"/>
    <path clip-path="url(#clipPath27)" transform="matrix(1.3333333,0,0,-1.3333333,0,2680.9067)" style="fill:#000000;fill-opacity:1;fill-rule:nonzero;stroke:none" d="m 824.572,464.074 h 25.358 v -94.187 h -25.358 z m -2.717,57.509 c 0,8.604 7.245,15.395 15.848,15.395 8.604,0 15.396,-6.791 15.396,-15.395 0,-8.604 -6.792,-15.849 -15.396,-15.849 -8.603,0 -15.848,7.245 -15.848,15.849" id="path26"/>
    <path clip-path="url(#clipPath29)" transform="matrix(1.3333333,0,0,-1.3333333,1168.2543,2124.9312)" style="fill:#000000;fill-opacity:1;fill-rule:nonzero;stroke:none" d="m 0,0 c 0,27.169 23.547,49.357 50.716,49.357 14.037,0 25.357,-4.076 35.32,-14.038 L 69.281,18.564 c -4.98,4.53 -11.32,7.247 -18.565,7.247 -14.49,0 -25.359,-10.869 -25.359,-25.811 0,-14.49 10.869,-25.811 25.359,-25.811 6.792,0 13.585,3.169 18.112,7.698 L 85.583,-34.415 C 76.526,-43.924 63.848,-49.357 50.716,-49.357 21.282,-49.357 0,-29.434 0,0" id="path28"/>
    <path clip-path="url(#clipPath31)" transform="matrix(1.3333333,0,0,-1.3333333,1313.4508,2159.3452)" style="fill:#000000;fill-opacity:1;fill-rule:nonzero;stroke:none" d="m 0,0 h 62.942 c 4.528,0 7.698,3.169 7.698,7.697 0,4.075 -3.17,7.245 -7.698,7.245 H 26.264 c -15.849,0 -28.981,12.679 -28.981,28.981 0,15.395 13.132,28.98 28.981,28.98 H 82.413 V 51.621 H 28.527 c -4.075,0 -7.697,-3.17 -7.697,-7.246 0,-4.527 3.169,-7.697 7.697,-7.697 h 36.679 c 15.849,0 28.981,-12.227 28.981,-28.981 0,-14.943 -13.132,-28.98 -28.981,-28.98 l -65.206,0 z" id="path30"/>
    <path clip-path="url(#clipPath33)" transform="matrix(1.3333333,0,0,-1.3333333,481.554,1180.5803)" style="fill:#000000;fill-opacity:1;fill-rule:nonzero;stroke:none" d="M 0,0 292.022,-168.599 584.044,0 V 337.198 L 292.022,505.796 0,337.198 Z m 292.022,-197.149 c -2.288,0 -4.575,0.592 -6.625,1.775 L -19.875,-19.125 c -4.1,2.367 -6.625,6.741 -6.625,11.475 v 352.498 c 0,4.734 2.525,9.108 6.625,11.475 l 305.272,176.248 c 4.1,2.367 9.15,2.367 13.25,0 L 603.919,356.323 c 4.1,-2.367 6.625,-6.741 6.625,-11.475 V -7.65 c 0,-4.734 -2.525,-9.108 -6.625,-11.475 L 298.647,-195.374 c -2.049,-1.183 -4.337,-1.775 -6.625,-1.775" id="path32"/>
    <path clip-path="url(#clipPath35)" transform="matrix(1.3333333,0,0,-1.3333333,1132.2923,804.87653)" style="fill:#5386a3;fill-opacity:1;fill-rule:nonzero;stroke:none" d="M 0,0 -196.032,113.179 -392.064,0 V -226.358 L -196.032,-339.537 0,-226.358 Z" id="path34"/>
    <path clip-path="url(#clipPath37)" transform="matrix(1.3333333,0,0,-1.3333333,618.20693,1101.6832)" style="fill:#000000;fill-opacity:1;fill-rule:nonzero;stroke:none" d="M 0,0 189.532,-109.427 379.064,0 V 218.852 L 189.532,328.279 0,218.852 Z M 189.532,-124.438 -13,-7.506 V 226.358 L 189.532,343.29 392.064,226.358 V -7.506 Z" id="path36"/>
    <path clip-path="url(#clipPath39)" transform="matrix(1.3333333,0,0,-1.3333333,466.054,1194.5328)" style="fill:#000000;fill-opacity:1;fill-rule:nonzero;stroke:none" d="m 0,0 -3.25,5.629 109.24,63.07 3.25,-5.629 z" id="path38"/>
    <path clip-path="url(#clipPath41)" transform="matrix(1.3333333,0,0,-1.3333333,1275.7793,1194.5328)" style="fill:#000000;fill-opacity:1;fill-rule:nonzero;stroke:none" d="m 0,0 -109.24,63.07 3.25,5.629 L 3.25,5.629 Z" id="path40"/>
    <path clip-path="url(#clipPath43)" transform="matrix(1.3333333,0,0,-1.3333333,0,2680.9067)" style="fill:#000000;fill-opacity:1;fill-rule:nonzero;stroke:none" d="m 656.438,1520.202 h -6.5 v 126.139 h 6.5 z" id="path42"/>
    <path clip-path="url(#clipPath45)" transform="matrix(1.3333333,0,0,-1.3333333,609.54067,804.87653)" style="fill:#9d9c9e;fill-opacity:1;fill-rule:nonzero;stroke:none" d="M 0,0 196.032,112.607 392.064,0 196.032,-113.179 Z" id="path44"/>
    <path clip-path="url(#clipPath47)" transform="matrix(1.3333333,0,0,-1.3333333,626.9068,804.89547)" style="fill:#000000;fill-opacity:1;fill-rule:nonzero;stroke:none" d="M 0,0 183.007,-105.66 366.015,0 183.007,105.125 Z M 183.007,-120.67 -26.05,0.028 183.007,120.117 392.064,0.028 Z" id="path46"/>
    <path clip-path="url(#clipPath49)" transform="matrix(1.3333333,0,0,-1.3333333,1132.4912,804.87667)" style="fill:#99d6f9;fill-opacity:1;fill-rule:nonzero;stroke:none" d="m 0,0 -0.496,-226.072 -195.536,-113.465 v 226.358 z" id="path48"/>
    <path clip-path="url(#clipPath51)" transform="matrix(1.3333333,0,0,-1.3333333,879.1152,960.40067)" style="fill:#000000;fill-opacity:1;fill-rule:nonzero;stroke:none" d="m 0,0 v -212.476 l 183.544,106.506 0.466,212.208 z M -12,-233.312 V 6.928 l 208.055,120.12 -0.527,-239.937 z" id="path50"/>
    <path clip-path="url(#clipPath53)" transform="matrix(1.3333333,0,0,-1.3333333,862.08333,971.0816)" style="fill:#000000;fill-opacity:1;fill-rule:nonzero;stroke:none" d="m 0,0 -305.272,176.251 13.25,22.95 L 13.25,22.949 Z" id="path52"/>
    <path clip-path="url(#clipPath55)" transform="matrix(1.3333333,0,0,-1.3333333,879.75067,971.0816)" style="fill:#000000;fill-opacity:1;fill-rule:nonzero;stroke:none" d="m 0,0 -13.25,22.95 305.271,176.248 13.25,-22.949 z" id="path54"/>
    <path clip-path="url(#clipPath57)" transform="matrix(1.3333333,0,0,-1.3333333,888.24933,1425.7855)" style="fill:#000000;fill-opacity:1;fill-rule:nonzero;stroke:none" d="m 0,0 h -26 l 0.002,352.504 H 0.003 Z" id="path56"/>
    <path clip-path="url(#clipPath59)" transform="matrix(1.3333333,0,0,-1.3333333,611.96747,1110.0601)" style="fill:#000000;fill-opacity:1;fill-rule:nonzero;stroke:none" d="m 0,0 -3.246,5.631 195.835,112.893 3.246,-5.631 z" id="path58"/>
    <path clip-path="url(#clipPath61)" transform="matrix(1.3333333,0,0,-1.3333333,1129.8652,1110.0601)" style="fill:#000000;fill-opacity:1;fill-rule:nonzero;stroke:none" d="m 0,0 -195.834,112.893 3.246,5.631 L 3.246,5.631 Z" id="path60"/>
    <path clip-path="url(#clipPath63)" transform="matrix(1.3333333,0,0,-1.3333333,0,2680.9067)" style="fill:#000000;fill-opacity:1;fill-rule:nonzero;stroke:none" d="m 656.438,1293.843 h -6.5 v 225.786 h 6.5 z" id="path62"/>
  </g>
</svg>